<svg xmlns="http://www.w3.org/2000/svg" viewBox="0 0 512 512"><path d="M256.8 512h-1.6c-113.647 0-189.137-117.75-141.879-221.083L242.359 8.761a15 15 0 0 1 27.282 0L398.68 290.916C445.949 394.277 370.422 512 256.8 512z" fill="#91e0ff"/><g fill="#61cef3"><path d="M398.679 290.917L269.641 8.761A15 15 0 0 0 256 0v512h.8c113.622 0 189.149-117.723 141.879-221.083z"/><path d="M384.993 260.991c-3.899.001-7.666.129-11.298.393-29.325 2.136-46.216 12.612-61.117 21.856-15.352 9.523-28.61 17.747-56.579 17.747s-41.227-8.224-56.579-17.747c-14.902-9.244-31.792-19.72-61.117-21.856a156.53 156.53 0 0 0-11.298-.393l-13.685 29.925C66.051 394.277 141.578 512 255.2 512h1.6c113.647 0 189.137-117.75 141.879-221.083l-13.686-29.926z"/></g><path d="M398.679 290.917l-13.686-29.925c-3.899.001-7.666.129-11.297.393-29.325 2.136-46.216 12.612-61.117 21.856-15.352 9.523-28.61 17.747-56.578 17.747V512h.8c113.646 0 189.136-117.75 141.878-221.083z" fill="#23a3e1"/></svg>